<svg xmlns="http://www.w3.org/2000/svg" viewBox="0 0 48 48"><defs><style>.cls-1{fill:#38d9b8;}.cls-2{fill:#084059;}</style></defs><title>Calculation</title><g id="Layer_2" data-name="Layer 2"><g id="Layer_1-2" data-name="Layer 1"><path class="cls-1" d="M24,48A24,24,0,1,0,0,24,24,24,0,0,0,24,48"/><path class="cls-2" d="M32.99,19.5052H15.0093V14.26a.8113.8113,0,0,1,.75-.749h16.482a.8112.8112,0,0,1,.749.749Zm0,14.234a.8112.8112,0,0,1-.749.749H15.7593a.8113.8113,0,0,1-.75-.749V21.0032H32.99Zm-.749-21.726H15.7593a2.3046,2.3046,0,0,0-2.248,2.247v19.479a2.3048,2.3048,0,0,0,2.248,2.248h16.482a2.3046,2.3046,0,0,0,2.247-2.248V14.26a2.3044,2.3044,0,0,0-2.247-2.247m-14.235,16.482h2.997v2.997h-2.997Zm0-4.495h2.997v2.997h-2.997Zm4.495,4.495h2.997v2.997h-2.997Zm0-4.495h2.997v2.997h-2.997Zm4.495,4.495V24h2.997v7.492h-2.997Zm-9.739,4.495h13.485a.7494.7494,0,0,0,.75-.749v-8.99a.75.75,0,0,0-.75-.75H17.2573a.7494.7494,0,0,0-.749.75v8.99a.7486.7486,0,0,0,.749.749"/></g></g></svg>