<svg xmlns="http://www.w3.org/2000/svg" viewBox="0 0 115.0244 120"><defs><style>.cls-1{fill:#073f58;}.cls-2{fill:#37d9b8;}</style></defs><title>Focus</title><g id="Layer_2" data-name="Layer 2"><g id="Layer_1-2" data-name="Layer 1"><rect class="cls-1" x="81.9712" y="61.9536" width="15.3804" height="65.3667" rx="7.6902" transform="translate(-40.6572 91.1187) rotate(-45)"/><path class="cls-2" d="M75.9365,39.5661l15.1561-.7142A45.7839,45.7839,0,0,0,48.3985,0l.7148,15.1661A30.8076,30.8076,0,0,1,75.9365,39.5661Z"/><path class="cls-2" d="M76.385,49.0328A30.7749,30.7749,0,0,1,28.8059,71.4551L18.6458,82.62A45.8049,45.8049,0,0,0,91.54,48.3187Z"/><path class="cls-1" d="M39.6452,15.5905,38.9316.445A45.8048,45.8048,0,0,0,11.6362,76.2411L21.7986,65.0734A30.7749,30.7749,0,0,1,39.6452,15.5905Z"/><path class="cls-1" d="M47.4256,47.8723q-.8154-.0405-1.6557-.0411c-9.1064,0-16.2394,3.6472-16.2394,8.3027v5.2355a1.3091,1.3091,0,0,0,1.3257,1.321H60.6838a1.3089,1.3089,0,0,0,1.3254-1.321V56.1339C62.0092,51.7647,55.726,48.2838,47.4256,47.8723Zm1.9772,8.1907a11.0414,11.0414,0,0,1-2.71,2.6274q-.4727.3843-.9227.7913-.4509-.4056-.9228-.7913a11.0388,11.0388,0,0,1-2.71-2.6274,2.8691,2.8691,0,0,1-.4217-2.0272,2.0853,2.0853,0,0,1,.47-.95,2.0021,2.0021,0,0,1,.9321-.5958,2.0417,2.0417,0,0,1,.5789-.0808,2.1618,2.1618,0,0,1,.58.08,2.2036,2.2036,0,0,1,.9745.5784,2.0569,2.0569,0,0,1,.5192.921,2.0558,2.0558,0,0,1,.5191-.921,2.2032,2.2032,0,0,1,.9744-.5784,2.162,2.162,0,0,1,.58-.08,2.041,2.041,0,0,1,.5788.0808,2.0009,2.0009,0,0,1,.9322.5958,2.0821,2.0821,0,0,1,.47.95A2.8684,2.8684,0,0,1,49.4028,56.063Z"/><path class="cls-1" d="M45.7694,45.47a8.311,8.311,0,1,0-8.31-8.3108A8.2738,8.2738,0,0,0,45.7694,45.47Z"/></g></g></svg>