<?xml version="1.0" encoding="utf-8"?>
<!-- Generator: Adobe Illustrator 22.0.0, SVG Export Plug-In . SVG Version: 6.00 Build 0)  -->
<svg version="1.1" id="Layer_1" xmlns="http://www.w3.org/2000/svg" xmlns:xlink="http://www.w3.org/1999/xlink" x="0px" y="0px"
	 viewBox="0 0 310.1 35" style="enable-background:new 0 0 310.1 35;" xml:space="preserve">
<style type="text/css">
	.st0{fill:#FFFFFF;}
</style>
<title>Precog-Health-logo</title>
<g id="Layer_2_1_">
	<g id="Layer_1-2">
		<path class="st0" d="M66.3,15c0.1,2.2-0.7,4.4-2.4,5.9c-1.6,1.4-3.9,2-6.8,2h-2.2v8.5h-5.1V7.6h7.6c2.9,0,5.1,0.6,6.6,1.9
			C65.6,10.9,66.4,12.9,66.3,15z M54.9,18.8h1.7c1.2,0.1,2.5-0.2,3.5-0.9c0.8-0.7,1.2-1.7,1.2-2.7c0.1-1-0.3-1.9-1-2.6
			c-0.9-0.6-2-0.9-3-0.8h-2.3V18.8z"/>
		<path class="st0" d="M75.5,22.3v9.2h-5.1V7.6h7c3.2,0,5.6,0.6,7.2,1.8c1.6,1.3,2.5,3.3,2.3,5.4c0,1.3-0.4,2.7-1.2,3.7
			c-0.8,1.1-2,2-3.3,2.6c3.6,5.4,5.9,8.8,7,10.4h-5.6l-5.7-9.2L75.5,22.3z M75.5,18.2h1.6c1.2,0.1,2.5-0.2,3.5-0.8
			c0.8-0.6,1.2-1.5,1.1-2.5c0.1-1-0.4-1.9-1.2-2.4c-1.1-0.6-2.4-0.8-3.6-0.7h-1.5V18.2z"/>
		<path class="st0" d="M106.8,31.5H93V7.6h13.7v4.1h-8.7V17h8.1v4.1h-8.1v6.2h8.7L106.8,31.5z"/>
		<path class="st0" d="M121.7,11.5c-1.7-0.1-3.4,0.7-4.4,2.1c-1.1,1.8-1.7,3.9-1.6,6c0,5.3,2,8,6,8c2.1-0.1,4.1-0.5,6.1-1.3v4.2
			c-2.1,0.8-4.3,1.3-6.6,1.2c-3.5,0-6.1-1.1-8-3.2s-2.8-5.1-2.8-9.1c0-2.2,0.4-4.5,1.4-6.5c0.8-1.8,2.2-3.3,3.9-4.3
			c1.8-1,3.9-1.5,5.9-1.5c2.4,0,4.8,0.6,7,1.7l-1.6,4.1c-0.9-0.4-1.8-0.8-2.7-1.1C123.5,11.6,122.6,11.5,121.7,11.5z"/>
		<path class="st0" d="M153.8,19.5c0,3.9-1,7-2.9,9.1s-4.8,3.2-8.4,3.2c-3.7,0-6.5-1.1-8.4-3.2s-2.9-5.2-2.9-9.1c0-4,1-7,2.9-9.1
			s4.8-3.1,8.4-3.1c3.7,0,6.5,1.1,8.4,3.2C152.9,12.5,153.8,15.5,153.8,19.5z M136.4,19.5c0,2.7,0.5,4.7,1.5,6
			c1.1,1.4,2.8,2.1,4.5,2c4,0,6.1-2.7,6.1-8c0-5.4-2-8.1-6-8.1c-1.8-0.1-3.5,0.6-4.6,2C136.9,14.8,136.4,16.8,136.4,19.5L136.4,19.5
			z"/>
		<path class="st0" d="M167.8,18.1h9.5v12.4c-1.4,0.5-2.9,0.8-4.3,1.1c-1.4,0.2-2.8,0.3-4.2,0.3c-3.6,0-6.4-1.1-8.2-3.2
			c-1.9-2.1-2.8-5.2-2.8-9.1c0-3.9,1.1-6.9,3.3-9s5.3-3.2,9.2-3.2c2.4,0,4.8,0.5,7.1,1.5l-1.7,4c-1.7-0.9-3.5-1.3-5.4-1.3
			c-2-0.1-3.9,0.7-5.3,2.2c-1.4,1.7-2.1,3.8-2,5.9c-0.1,2.1,0.4,4.2,1.6,5.9c1.1,1.4,2.8,2.2,4.6,2c1.1,0,2.2-0.1,3.2-0.3v-5h-4.5
			L167.8,18.1z"/>
		<path class="st0" d="M210.7,31.5h-2.8V20.2h-12.6v11.2h-2.8V7.6h2.8v10.2h12.6V7.6h2.8L210.7,31.5z"/>
		<path class="st0" d="M230.4,31.5h-13.3V7.6h13.3v2.5h-10.5v7.7h9.9v2.4h-9.9V29h10.5V31.5z"/>
		<path class="st0" d="M251.7,31.5l-3-7.6h-9.6l-2.9,7.6h-2.8l9.4-24h2.3l9.4,24H251.7z M247.9,21.4l-2.8-7.4
			c-0.4-0.9-0.7-2.1-1.1-3.4c-0.3,1.2-0.6,2.3-1,3.4l-2.8,7.4H247.9z"/>
		<path class="st0" d="M258.3,31.5V7.6h2.8V29h10.5v2.5H258.3z"/>
		<path class="st0" d="M280.6,31.5h-2.8V10.1h-7.6V7.6h17.9v2.5h-7.6L280.6,31.5z"/>
		<path class="st0" d="M310.1,31.5h-2.8V20.2h-12.6v11.2H292V7.6h2.8v10.2h12.6V7.6h2.8V31.5z"/>
		<path class="st0" d="M17,12c-0.1-2.3-2-4.1-4.4-4.1c-2.3,0.1-4.1,2-4.1,4.4c0.1,2.3,2,4.1,4.3,4.1C15.2,16.3,17.1,14.4,17,12
			C17,12,17,12,17,12z M10.8,12.2c0-1.1,0.9-2,2-2c1.1,0,2,0.9,2,2c0,1.1-0.9,2-1.9,2C11.7,14.2,10.8,13.3,10.8,12.2L10.8,12.2z"/>
		<path class="st0" d="M34.6,15.1v-1.8C34.6,6,28.6,0,21.3,0c-2.7,0-5.3,0.8-7.5,2.3l0.8,2.1L16.1,5l2.4-1.5L20,4.6L19,7.3l0.9,1.5
			l2.8,0.4l0.4,1.9l-2.4,1.5l-0.3,1.7l1.9,2.1L21.3,18l-2.8-0.5l-1.3,1.1l0.1,2.9l-1.7,0.7L13.8,20l-1.7,0l-1.2,1.6
			c0.4,0.5,0.8,1,1.3,1.4v12h15.7v-4.2h3.9c1.5,0,2.8-1.3,2.8-2.8v-4.9H36c0.8,0.1,1.7-0.4,1.8-1.3c0.1-0.4,0-0.9-0.3-1.2L34.6,15.1
			z M30.7,17.1c-0.8,0-1.4-0.6-1.4-1.4c0-0.8,0.6-1.4,1.4-1.4s1.4,0.6,1.4,1.4c0,0,0,0,0,0C32.1,16.5,31.5,17.1,30.7,17.1z"/>
		<path class="st0" d="M8.1,22.9l1.1-0.6L9,21.4l-1.2-0.2l-0.4-0.7l0.4-1.2l-0.6-0.5l-1.1,0.7l-0.7-0.2l-0.4-1.2l-0.8,0l-0.4,1.2
			L3,19.6L1.9,19l-0.6,0.6l0.5,1.2l-0.4,0.7l-1.2,0.2L0,22.4L1.1,23l0.1,0.7l-0.8,1l0.4,0.7l1.2-0.3l0.6,0.5l0,1.3l0.8,0.3l0.8-1
			l0.8,0l0.8,1l0.8-0.3l0-1.3l0.6-0.5l1.2,0.2l0.4-0.7L8,23.6L8.1,22.9z M4.6,24.6c-1,0-1.9-0.9-1.9-1.9c0-1,0.8-1.9,1.8-1.9
			c0.4,0,0.7,0.1,1.1,0.3c0.4,0.3,0.7,0.7,0.8,1.2c0,0.1,0,0.3,0,0.4C6.5,23.7,5.7,24.6,4.6,24.6z"/>
		<path class="st0" d="M4.9,20.9c0.2,0,0.5,0.1,0.7,0.3C5.4,21,5.2,20.9,4.9,20.9z"/>
	</g>
</g>
</svg>
