<svg xmlns="http://www.w3.org/2000/svg" viewBox="0 0 48 48"><defs><style>.cls-1{fill:#38d9b8;}.cls-2{fill:#084059;}</style></defs><title>Worksheet</title><g id="Layer_2" data-name="Layer 2"><g id="Layer_1-2" data-name="Layer 1"><path class="cls-1" d="M24,48A24,24,0,1,0,0,24,24,24,0,0,0,24,48"/><path class="cls-2" d="M28.9516,29.7785H24.8249v2.4768h4.1267Zm0-4.1266H24.8249v2.4768h4.1267Zm0-3.3017H19.0464V24h9.9052Zm-9.9052,5.7764H23.173V25.65H19.0464Zm0,4.1287H23.173V29.7785H19.0464Zm11.557-10.7321V33.08a.8255.8255,0,0,1-.8249.825H18.2215a.8255.8255,0,0,1-.8249-.825V21.5232a.8255.8255,0,0,1,.8249-.8249h11.557a.8255.8255,0,0,1,.8249.8249M15.7447,34.7321a.8281.8281,0,0,0,.8249.8249H31.4284a.8285.8285,0,0,0,.8269-.8249V13.274a.832.832,0,0,0-.8269-.829h-9.08v5.3681a1.2331,1.2331,0,0,1-1.2394,1.2353h-5.364Zm4.9515-22.2566a.81.81,0,0,0-.3819.2153l-4.3258,4.3278a.8046.8046,0,0,0-.2174.382h4.9251Zm-5.874,3.3728L19.15,11.5205a2.4774,2.4774,0,0,1,1.7474-.7274h10.531a2.4862,2.4862,0,0,1,2.4768,2.4809V34.7321a2.477,2.477,0,0,1-2.4768,2.4748H16.57a2.4766,2.4766,0,0,1-2.4748-2.4748v-17.13a2.4862,2.4862,0,0,1,.7274-1.7535"/></g></g></svg>