<svg xmlns="http://www.w3.org/2000/svg" viewBox="0 0 310.1424 35" ><g id="Layer_2" data-name="Layer 2"><g id="Layer_1-2" data-name="Layer 1">
<path d="M17.0092,12.04a4.214,4.214,0,1,0-4.1239,4.3519A4.2363,4.2363,0,0,0,17.0092,12.04Zm-6.197.131a1.9848,1.9848,0,1,1,2.0261,1.966A1.9978,1.9978,0,0,1,10.8122,12.1709Z"></path>
<path d="M34.5639,15.0818V13.3A13.299,13.299,0,0,0,13.74,2.3338l.7649,2.0692,1.5974.55L18.5029,3.44l1.4549,1.1835L19.0135,7.32l.8747,1.4607,2.8.4021.3634,1.853L20.614,12.4881l-.258,1.6873,1.8895,2.13-.8985,1.656-2.79-.4732-1.27,1.1253.0949,2.86-1.7406.6839L13.8041,19.98l-1.6876.036-1.2326,1.5915a13.381,13.381,0,0,0,1.28,1.3871V35h15.75V30.8h3.85a2.8082,2.8082,0,0,0,2.8-2.8V23.1h1.4a1.5572,1.5572,0,0,0,1.5007-2.48Zm-3.85,2.0358A1.3677,1.3677,0,1,1,32.0815,15.75,1.3683,1.3683,0,0,1,30.7139,17.1176Z"></path>
<path d="M8.0675,22.8938l1.0862-.6468-.1619-.8257-1.2477-.179-.39-.6507L7.7752,19.39l-.6482-.5274-1.07.6743-.7116-.2451-.4415-1.1944-.8316.0178-.3911,1.2119-.701.2751-1.0968-.6279-.6259.5544.47,1.1827-.3621.6665L.1273,21.61,0,22.4417l1.1119.6005.146.7461-.8016.9836.431.72,1.2332-.2633.5857.4767.0109,1.275.7875.2712.7773-1.0036.7518-.016.8181.97.7755-.3046-.0423-1.274.566-.5014,1.2431.2109.4-.7378-.8418-.9487ZM4.6243,24.6329a1.9,1.9,0,0,1-.0791-3.7983,1.852,1.852,0,0,1,1.0563.3021,1.9009,1.9009,0,0,1,.814,1.1754,1.9254,1.9254,0,0,1,.0461.3819A1.89,1.89,0,0,1,4.6243,24.6329Z"></path>
</svg>