<svg xmlns="http://www.w3.org/2000/svg" viewBox="0 0 341.6151 288"><defs><style>.cls-1{isolation:isolate;}.cls-2,.cls-5{fill:#37d9b8;}.cls-3{fill:#d6f2e8;}.cls-4{fill:#073f58;}.cls-5{opacity:0.43;}.cls-6{fill:#effaf6;}.cls-7{fill:#ade7d2;opacity:0.36;mix-blend-mode:multiply;}.cls-10,.cls-8{fill:#fff;}.cls-9{fill:#848689;}.cls-10{stroke:#337ec6;stroke-width:4.932px;}.cls-11{fill:#04405e;}.cls-12{fill:#fb866b;}.cls-13{fill:#36667e;}</style></defs><title>Documentation</title><g class="cls-1"><g id="Layer_2" data-name="Layer 2"><g id="Layer_1-2" data-name="Layer 1"><path class="cls-2" d="M35.8278,82.0907h269.96a10.6,10.6,0,0,1,10.6,10.6V261.1263a0,0,0,0,1,0,0H25.2281a0,0,0,0,1,0,0V92.69a10.6,10.6,0,0,1,10.6-10.6Z"/><rect class="cls-3" x="45.4833" y="101.2983" width="250.6485" height="140.6204"/><path class="cls-4" d="M0,259.5312H341.6151a0,0,0,0,1,0,0v21.9731A6.4957,6.4957,0,0,1,335.1194,288H6.4957A6.4957,6.4957,0,0,1,0,281.5043V259.5312A0,0,0,0,1,0,259.5312Z"/><rect class="cls-5" x="137.8578" y="259.5312" width="65.8996" height="12.4046"/><rect class="cls-6" x="130.0814" y="24.1122" width="166.0451" height="188.5132" transform="translate(31.5086 -44.2584) rotate(12.7959)"/><rect class="cls-7" x="98.0232" y="10.6861" width="166.0451" height="201.1173"/><rect class="cls-8" x="89.8101" y="18.0841" width="166.0451" height="201.1173"/><rect class="cls-2" x="150.6297" y="155.6963" width="19.0193" height="42.4869"/><rect class="cls-2" x="125.2433" y="170.373" width="19.0193" height="27.8102"/><rect class="cls-2" x="176.0162" y="136.4529" width="19.0193" height="61.7304"/><rect class="cls-2" x="201.4026" y="157.6706" width="19.0193" height="40.5127"/><rect class="cls-9" x="118.9526" y="198.1464" width="107.7599" height="4.0669"/><rect class="cls-3" x="121.8683" y="93.7086" width="101.9287" height="9.6671"/><rect class="cls-3" x="121.8683" y="115.0813" width="101.9287" height="9.6671"/><circle class="cls-3" cx="172.8326" cy="62.6725" r="20.3072"/><path class="cls-4" d="M173.3851,62.765q-.5605-.0278-1.1385-.0282c-6.2619,0-11.1667,2.5079-11.1667,5.7092v3.6a.9.9,0,0,0,.9115.9083H182.502a.9.9,0,0,0,.9114-.9083v-3.6C183.4134,65.4415,179.0928,63.048,173.3851,62.765Z"/><path class="cls-4" d="M172.2463,61.1129a5.715,5.715,0,1,0-5.7141-5.7148A5.6889,5.6889,0,0,0,172.2463,61.1129Z"/><path class="cls-4" d="M182.6967,9.8641a9.8641,9.8641,0,1,0-19.7282,0H139.13v16.44h67.4044V9.8641Z"/><circle class="cls-10" cx="228.3262" cy="157.0734" r="22.1238"/><rect class="cls-11" x="250.0941" y="169.3331" width="6.576" height="31.2362" transform="translate(-56.5663 233.3392) rotate(-45)"/><path class="cls-12" d="M232.345,167.7909v-7.0575a5.8033,5.8033,0,1,0-7.452-6.3161h-8.3448a5.8043,5.8043,0,1,0,0,3.41h8.93a5.8279,5.8279,0,0,0,3.4563,2.9059v7.0575a5.8043,5.8043,0,1,0,3.41,0ZM211,158.5165a2.3939,2.3939,0,1,1,2.3941-2.3941A2.397,2.397,0,0,1,211,158.5165Zm19.64,17.2157a2.3938,2.3938,0,1,1,2.3941-2.3936A2.3961,2.3961,0,0,1,230.64,175.7322Zm-2.3936-20.5466A2.3939,2.3939,0,1,1,230.64,157.58,2.3965,2.3965,0,0,1,228.2463,155.1856Z"/><path class="cls-13" d="M228.3262,181.6631a24.59,24.59,0,1,1,24.59-24.59A24.6179,24.6179,0,0,1,228.3262,181.6631Zm0-44.2473a19.6575,19.6575,0,1,0,19.6575,19.6575A19.68,19.68,0,0,0,228.3262,137.4158Z"/></g></g></g></svg>