<svg xmlns="http://www.w3.org/2000/svg" viewBox="0 0 131.1451 120"><defs><style>.cls-1{fill:#084059;}.cls-2{fill:#37d9b8;}</style></defs><title>Inform</title><g id="Layer_2" data-name="Layer 2"><g id="Layer_1-2" data-name="Layer 1"><path class="cls-1" d="M120,.1585,42.8,0A11.1456,11.1456,0,0,0,31.6559,11.1474V24.99l56.6878-.1178A11.1466,11.1466,0,0,1,99.4891,36.02V77.7176l15.828,17.4079V70.2532H120a11.1461,11.1461,0,0,0,11.1454-11.1453V11.3059A11.1465,11.1465,0,0,0,120,.1585"/><path class="cls-2" d="M88.3438,24.8725l-77.1985.1605A11.146,11.146,0,0,0,0,36.1783V83.98A11.1465,11.1465,0,0,0,11.1453,95.1277H27.1329V120L49.7446,95.1277l38.5992-.16A11.146,11.146,0,0,0,99.4891,83.8218V36.02A11.1464,11.1464,0,0,0,88.3438,24.8725ZM24.8719,67.8a6.7837,6.7837,0,1,1,6.7837-6.7837A6.783,6.783,0,0,1,24.8719,67.8Zm24.8723,0a6.7837,6.7837,0,1,1,6.7837-6.7837A6.783,6.783,0,0,1,49.7442,67.8Zm24.8723,0A6.7837,6.7837,0,1,1,81.4,61.0165,6.783,6.783,0,0,1,74.6165,67.8Z"/></g></g></svg>