<svg xmlns="http://www.w3.org/2000/svg" viewBox="0 0 119.5098 118.5984"><defs><style>.cls-1{fill:#37d9b8;}.cls-2{fill:#073f58;}</style></defs><title>Reimbursements</title><g id="Layer_2" data-name="Layer 2"><g id="Layer_1-2" data-name="Layer 1"><path class="cls-1" d="M34.8848,76.3242a2.1143,2.1143,0,0,1,0-4.2285H67.4961V60.5672a7.92,7.92,0,0,1,7.9111-7.9111h9.1621V6.51A6.51,6.51,0,0,0,78.06,0H6.51A6.51,6.51,0,0,0,0,6.51V100.145a6.51,6.51,0,0,0,6.51,6.51H67.4961v-30.33Zm27.4851-14.8H60.2556a2.1142,2.1142,0,1,1,0-4.2284H62.37a2.1142,2.1142,0,1,1,0,4.2284Zm-27.485-40.17H68.7126a2.1142,2.1142,0,1,1,0,4.2284H34.8849a2.1142,2.1142,0,1,1,0-4.2284ZM64.4841,34.04A2.1143,2.1143,0,0,1,62.37,36.1538H60.2556a2.1143,2.1143,0,0,1,0-4.2285H62.37A2.1143,2.1143,0,0,1,64.4841,34.04ZM34.8848,31.9253H51.7987a2.1143,2.1143,0,0,1,0,4.2285H34.8848a2.1143,2.1143,0,0,1,0-4.2285Zm0,14.8H68.7125a2.1143,2.1143,0,0,1,0,4.2285H34.8848a2.1143,2.1143,0,0,1,0-4.2285Zm0,10.5712H51.7987a2.1142,2.1142,0,0,1,0,4.2284H34.8848a2.1142,2.1142,0,1,1,0-4.2284ZM14.437,25.8718c0-2.1764,1.5918-3.6875,4.1484-4.0894V18.4593h2.46v3.282a6.7408,6.7408,0,0,1,4.0476,2.0678l-1.8381,2.1281a5.5942,5.5942,0,0,0-3.5083-1.2742c-1.1259,0-1.7486.425-1.7486,1.1585,0,1.7922,7.36,1.5719,7.36,6.17,0,2.1065-1.5238,3.7837-4.3127,4.2591v3.7812h-2.46V36.3484a9.3433,9.3433,0,0,1-4.8184-1.9969l1.6209-2.5189a8.43,8.43,0,0,0,4.5469,1.57c1.2214,0,1.8623-.4281,1.8623-1.15C21.7971,30.1435,14.437,30.5164,14.437,25.8718ZM28.5422,84.7811a2.1143,2.1143,0,0,1-2.1142,2.1142H15.8567a2.1142,2.1142,0,0,1-2.1141-2.1142V74.21a2.1142,2.1142,0,0,1,2.1141-2.1142H26.428A2.1142,2.1142,0,0,1,28.5422,74.21Zm0-25.3708a2.1143,2.1143,0,0,1-2.1142,2.1142H15.8567A2.1142,2.1142,0,0,1,13.7426,59.41V48.8392a2.1143,2.1143,0,0,1,2.1141-2.1143H26.428a2.1143,2.1143,0,0,1,2.1142,2.1143Zm23.2565,27.485H34.8848a2.1143,2.1143,0,0,1,0-4.2285H51.7987a2.1143,2.1143,0,0,1,0,4.2285Zm10.5712,0H60.2556a2.1143,2.1143,0,0,1,0-4.2285H62.37a2.1143,2.1143,0,0,1,0,4.2285Z"/><rect class="cls-1" x="17.9709" y="76.3242" width="6.3428" height="6.3427"/><rect class="cls-1" x="17.9709" y="50.9534" width="6.3428" height="6.3427"/><path class="cls-2" d="M17.9983,25.8215c0-.7335.6227-1.1585,1.7486-1.1585a5.5942,5.5942,0,0,1,3.5083,1.2742l1.8381-2.1281a6.7408,6.7408,0,0,0-4.0476-2.0678v-3.282h-2.46v3.3231c-2.5566.4019-4.1484,1.913-4.1484,4.0894,0,4.6446,7.36,4.2717,7.36,6.3807,0,.7222-.6409,1.15-1.8623,1.15a8.43,8.43,0,0,1-4.5469-1.57L13.767,34.3515a9.3433,9.3433,0,0,0,4.8184,1.9969v3.6837h2.46V36.2509c2.7889-.4754,4.3127-2.1526,4.3127-4.2591C25.3584,27.3934,17.9983,27.6137,17.9983,25.8215Z"/><path class="cls-2" d="M114.4,55.4588H75.4072a5.1144,5.1144,0,0,0-5.1084,5.1084V113.49a5.1149,5.1149,0,0,0,5.1094,5.1088H114.4A5.1149,5.1149,0,0,0,119.51,113.49V60.5682A5.1151,5.1151,0,0,0,114.4,55.4588Zm-31.6926,54.8H77.7744v-4.9332h4.9334Zm0-11.2584H77.7744V94.0675h4.9334Zm0-11.2584H77.7744V82.8091h4.9334Zm9.7756,22.5168H87.55v-4.9332h4.9332Zm0-11.2584H87.55V94.0675h4.9332Zm0-11.2584H87.55V82.8091h4.9332Zm9.7756,22.5168H97.3258v-4.9332h4.9332Zm0-11.2584H97.3258V94.0675h4.9332Zm0-11.2584H97.3258V82.8091h4.9332Zm9.7757,22.5168h-4.9333v-4.9332h4.9333Zm0-11.2584h-4.9333V94.0675h4.9333Zm0-11.2584h-4.9333V82.8091h4.9333Zm0-11.6883h-34.26V64.7715h34.26Z"/></g></g></svg>