<?xml version="1.0" standalone="no"?>
<!DOCTYPE svg PUBLIC "-//W3C//DTD SVG 20010904//EN"
 "http://www.w3.org/TR/2001/REC-SVG-20010904/DTD/svg10.dtd">
<svg version="1.0" xmlns="http://www.w3.org/2000/svg"
 width="168.000000pt" height="168.000000pt" viewBox="0 0 168.000000 168.000000"
 preserveAspectRatio="xMidYMid meet">
<metadata>
Created by potrace 1.11, written by Peter Selinger 2001-2013
</metadata>
<g transform="translate(0.000000,168.000000) scale(0.100000,-0.100000)"
fill="#000000" stroke="none">
<path d="M825 1549 c-73 -17 -132 -40 -171 -66 l-23 -15 18 -46 c15 -36 25
-48 52 -57 31 -11 38 -9 83 21 l49 33 28 -22 c34 -25 33 -17 13 -88 -16 -56
-16 -58 6 -88 16 -23 30 -31 53 -32 64 -2 81 -12 88 -51 5 -36 4 -37 -45 -64
-28 -15 -53 -28 -55 -30 -1 -1 -5 -19 -8 -39 -4 -30 1 -41 31 -75 41 -45 41
-46 24 -84 -12 -26 -16 -27 -65 -22 -28 3 -55 7 -60 8 -5 2 -21 -7 -36 -18
-24 -20 -27 -28 -27 -83 0 -58 -1 -61 -31 -77 l-31 -16 -40 46 c-35 39 -47 46
-78 46 -29 0 -41 -6 -58 -30 -28 -37 -27 -42 3 -72 l25 -25 2 -249 3 -249 315
-1 c173 0 321 2 328 4 8 3 12 23 11 61 -1 31 -1 68 0 84 l1 27 99 0 c92 0 102
2 129 25 41 34 48 62 47 188 l0 107 47 0 c53 0 88 24 88 60 0 18 -51 122 -114
230 -21 37 -26 58 -26 115 -1 150 -57 288 -165 401 -49 51 -180 127 -239 138
-11 2 -32 7 -46 10 -52 14 -157 11 -225 -5z m542 -593 c46 -15 34 -89 -16
-101 -20 -5 -31 -1 -48 19 -19 22 -21 31 -12 53 16 41 27 46 76 29z"/>
<path d="M549 1230 c-68 -19 -102 -53 -123 -121 -26 -87 9 -170 87 -208 116
-56 244 16 255 142 10 121 -105 219 -219 187z m108 -125 c36 -41 18 -106 -35
-126 -34 -13 -87 12 -99 47 -11 36 -11 43 6 72 26 47 89 50 128 7z"/>
<path d="M224 785 c-7 -30 -36 -40 -63 -24 -29 19 -53 -4 -41 -37 13 -32 3
-54 -25 -54 -36 0 -40 -30 -8 -56 28 -22 28 -23 10 -52 -22 -38 -13 -66 19
-58 35 9 54 -3 54 -35 0 -39 25 -48 54 -20 29 27 50 27 68 -1 19 -28 48 -18
48 16 0 34 23 55 54 49 32 -7 45 20 22 46 -22 24 -20 48 4 61 11 6 20 17 20
25 0 8 -9 19 -20 25 -11 6 -20 8 -20 4 0 -3 -7 -1 -16 7 -11 9 -14 22 -10 43
9 47 -5 62 -38 41 -25 -17 -27 -17 -46 0 -11 10 -20 24 -20 32 0 24 -39 15
-46 -12z m89 -128 c23 -29 17 -67 -13 -97 -29 -29 -67 -25 -100 10 -25 26 -27
35 -20 61 12 40 26 57 53 61 33 6 59 -6 80 -35z"/>
</g>
</svg>
